{"title":"The Escapist[2001]dvdrip[xvid Ac3[5.1]  - Insomniack","uid":8269471,"size":824241100,"categoryP":"video","categoryS":"movies","magnet":"?xt=urn:btih:d06bbb5f17f04e01d8ea45f499e55af81bb98916&amp;dn=The+Escapist%5B2001%5Ddvdrip%5Bxvid+Ac3%5B5.1%5D++-+Insomniack&amp;tr=udp%3A%2F%2Ftracker.openbittorrent.com%3A80&amp;tr=udp%3A%2F%2Fopen.demonii.com%3A1337&amp;tr=udp%3A%2F%2Ftracker.coppersurfer.tk%3A6969&amp;tr=udp%3A%2F%2Fexodus.desync.com%3A6969","seeders":1,"leechers":2,"uploader":"sceneline","files":4,"time":1363576486,"description":"-\n\n      the fast  and The Hottest Private Tracker on the net\n\nPlease Seed back to make the speed Faster!!\n ............ NFO .............\n-General\nComplete name                            : The Escapist[2001]dvdrip[xvid Ac3[5.1]  - Insomniack.avi\nFormat                                   : AVI\nFormat/Info                              : Audio Video Interleave\nFile size                                : 786 MiB\nDuration                                 : 1h 30mn\nOverall bit rate                         : 1 215 Kbps\nWriting application                      : VirtualDubMod 1.5.4.1 (build 2178/release)\nWriting library                          : VirtualDubMod build 2178/release\n\nVideo\nID                                       : 0\nFormat                                   : MPEG-4 Visual\nFormat profile                           : Simple@L3\nFormat settings, BVOP                    : No\nFormat settings, QPel                    : No\nFormat settings, GMC                     : No warppoints\nFormat settings, Matrix                  : Default (H.263)\nCodec ID                                 : XVID\nCodec ID/Hint                            : XviD\nDuration                                 : 1h 30mn\nBit rate                                 : 1 080 Kbps\nWidth                                    : 720 pixels\nHeight                                   : 400 pixels\nDisplay aspect ratio                     : 16:9\nFrame rate                               : 23.976 fps\nColor space                              : YUV\nChroma subsampling                       : 4:2:0\nBit depth                                : 8 bits\nScan type                                : Progressive\nCompression mode                         : Lossy\nBits/(Pixel*Frame)                       : 0.156\nStream size                              : 699 MiB (89%)\nWriting library                          : XviD 1.2.0.dev47 (UTC 2006-11-01)\n\nAudio\nID                                       : 1\nFormat                                   : MPEG Audio\nFormat version                           : Version 1\nFormat profile                           : Layer 3\nMode                                     : Joint stereo\nMode extension                           : MS Stereo\nCodec ID                                 : 55\nCodec ID/Hint                            : MP3\nDuration                                 : 1h 30mn\nBit rate mode                            : Constant\nBit rate                                 : 128 Kbps\nChannel(s)                               : 2 channels\nSampling rate                            : 48.0 KHz\nCompression mode                         : Lossy\nStream size                              : 82.8 MiB (11%)\nAlignment                                : Aligned on interleaves\nInterleave, duration                     : 83 ms (2.00 video frames)\nInterleave, preload duration             : 504 ms\nWriting library                          : LAME3.97 \nEncoding settings                        : -m j -V 4 -q 2 -lowpass 17 -b 128\nLanguage                                 : English","torrent":{"xt":"urn:btih:d06bbb5f17f04e01d8ea45f499e55af81bb98916","amp;dn":"The+Escapist%5B2001%5Ddvdrip%5Bxvid+Ac3%5B5.1%5D++-+Insomniack","amp;tr":["udp%3A%2F%2Ftracker.openbittorrent.com%3A80","udp%3A%2F%2Fopen.demonii.com%3A1337","udp%3A%2F%2Ftracker.coppersurfer.tk%3A6969","udp%3A%2F%2Fexodus.desync.com%3A6969"],"infoHash":"d06bbb5f17f04e01d8ea45f499e55af81bb98916","infoHashBuffer":{"type":"Buffer","data":[208,107,187,95,23,240,78,1,216,234,69,244,153,229,90,248,27,185,137,22]},"announce":[],"urlList":[]}}